<?xml version="1.0" encoding="UTF-8" standalone="no"?>
<!-- Created with Inkscape (http://www.inkscape.org/) -->
<svg
   xmlns:svg="http://www.w3.org/2000/svg"
   xmlns="http://www.w3.org/2000/svg"
   version="1.0"
   width="200"
   height="200"
   id="svg2">
  <defs
     id="defs4" />
  <g
     id="g3167">
    <rect
       width="200"
       height="146.14301"
       x="0"
       y="26.928497"
       id="rect2395"
       style="opacity:1;fill:#ffffff;fill-opacity:1;fill-rule:nonzero;stroke:#000000;stroke-width:0;stroke-miterlimit:4;stroke-dasharray:none;stroke-opacity:1" />
    <g
       id="layer1"
       style="fill:#ff0000;fill-opacity:1">
      <path
         d="M 21.485219,91.384283 C 23.888464,91.240169 25.546717,91.43243 26.459985,91.961068 C 27.373199,92.778259 27.781755,93.403109 27.685652,93.835617 C 27.925951,96.287028 26.892546,97.584792 24.585436,97.728912 L 21.485219,97.728912 L 21.485219,91.384283 z M 21.485219,102.0548 C 25.859142,101.81454 28.046114,102.67972 28.046142,104.65033 C 28.142245,106.28462 27.877885,107.36609 27.253064,107.89474 C 26.820448,108.42352 26.003338,108.83208 24.80173,109.12041 L 21.485219,109.12041 L 21.485219,102.0548 z M 16.077865,87.130498 L 16.077865,113.44629 L 26.964671,113.44629 C 30.473413,113.15796 32.780548,111.06712 33.886084,107.17376 C 34.030246,105.58767 33.837985,104.28991 33.3093,103.28046 C 32.588287,101.83857 31.338588,100.70904 29.560201,99.891854 L 30.930064,98.810383 C 32.275862,97.560759 32.900711,96.839779 32.804614,96.647441 C 33.621691,94.148121 33.309267,91.816952 31.867339,89.65393 C 30.761805,88.308185 28.767094,87.467041 25.883201,87.130498 L 16.077865,87.130498 z M 25.378514,52.307138 L 25.378514,78.622928 L 30.785868,78.622928 L 30.785868,67.80822 L 39.005046,67.80822 L 39.005046,63.193944 L 30.785868,63.193944 L 30.785868,56.849316 L 41.528478,56.849316 L 41.528478,52.307138 L 25.378514,52.307138 z M 34.823359,87.130498 L 42.898341,104.21774 L 42.898341,113.44629 L 48.305695,113.44629 L 48.305695,104.00144 L 56.164383,87.346792 L 56.380677,87.202596 L 56.380677,87.130498 L 50.973323,87.130498 L 45.493871,98.449893 L 40.591204,87.635185 C 40.446967,87.298813 40.230673,87.130584 39.942321,87.130498 L 34.823359,87.130498 z M 53.280461,56.344629 C 56.260458,55.864093 57.798548,58.291391 57.894736,63.626533 C 58.231136,70.355787 57.149666,73.984718 54.650324,74.513339 C 52.919918,74.705699 51.742317,74.128915 51.117519,72.782986 C 50.396488,71.437257 50.011966,69.538677 49.963951,67.087239 C 49.579378,60.26207 50.68488,56.681203 53.280461,56.344629 L 53.280461,56.344629 z M 44.124008,63.049748 C 43.835572,68.48124 44.508486,72.63889 46.142754,75.522711 C 47.488536,77.589618 49.603411,78.839316 52.487382,79.27181 C 54.217681,79.464165 55.972066,79.271904 57.75054,78.695025 C 61.259251,77.445422 63.229929,73.81649 63.662581,67.80822 C 63.854778,62.328878 63.277994,58.267359 61.932227,55.623649 C 60.682467,53.460827 58.471462,52.114998 55.299207,51.586158 C 51.453925,51.249822 48.618071,52.163063 46.791636,54.325884 C 45.44576,56.488942 44.556552,59.396894 44.124008,63.049748 L 44.124008,63.049748 z M 73.828406,56.200433 C 75.606749,56.008289 77.216938,56.224583 78.658976,56.849316 C 79.379877,57.37815 79.788432,58.09913 79.884643,59.012257 C 80.172955,62.088552 78.827126,63.722773 75.847152,63.914925 L 73.828406,63.914925 L 73.828406,56.200433 z M 75.702956,91.167989 C 78.68293,90.687418 80.22102,93.114717 80.317231,98.449893 C 80.653608,105.17911 79.572138,108.80805 77.072819,109.3367 C 75.34239,109.52903 74.16479,108.95224 73.540014,107.60635 C 72.818961,106.26058 72.410405,104.362 72.314347,101.9106 C 71.977818,95.085395 73.107353,91.504528 75.702956,91.167989 L 75.702956,91.167989 z M 66.546503,97.873108 C 66.258044,103.30457 66.930959,107.46222 68.565248,110.34607 C 69.911009,112.41295 72.025883,113.66264 74.909877,114.09517 C 76.592088,114.28749 78.346473,114.09523 80.173035,113.51839 C 83.681723,112.26875 85.652401,108.63982 86.085076,102.63158 C 86.277251,97.152204 85.700467,93.090684 84.354722,90.447009 C 83.104939,88.284152 80.893935,86.938323 77.721701,86.409518 C 73.876398,86.073147 71.040544,86.986388 69.214131,89.149244 C 67.868233,91.312267 66.979024,94.220219 66.546503,97.873108 L 66.546503,97.873108 z M 68.421052,52.307138 L 68.421052,78.622928 L 73.828406,78.622928 L 73.828406,67.952416 L 76.135544,68.096612 L 80.533525,78.334536 C 80.629575,78.574957 80.966033,78.671088 81.542898,78.622928 L 86.517664,78.622928 L 81.11031,67.087239 C 83.609625,65.308928 85.051585,63.69874 85.436193,62.25667 C 86.060957,59.565122 85.748532,57.185889 84.498918,55.118962 C 83.393331,53.677121 81.374588,52.739847 78.442682,52.307138 L 68.421052,52.307138 z M 97.548666,71.268926 C 97.404373,75.97943 99.567312,78.59899 104.03749,79.127614 C 107.54616,79.223838 110.02152,78.719153 111.46359,77.613555 C 112.80931,76.652344 113.72255,74.946025 114.20332,72.494593 C 114.44353,70.091428 113.98691,68.024619 112.83345,66.294161 C 112.11236,65.429092 111.34332,64.708112 110.52632,64.131219 L 104.83057,61.607787 C 103.38851,60.694658 102.81172,59.468992 103.10022,57.930786 C 103.5327,56.585073 104.15755,55.960223 104.97477,56.056237 C 107.04147,55.864093 108.21907,56.392811 108.50757,57.642394 L 108.36337,60.526316 L 113.26604,60.38212 C 113.79465,54.998917 111.94413,52.066932 107.71449,51.586158 C 101.75428,51.153691 98.413744,53.268565 97.692862,57.930786 C 97.596634,60.382233 97.909058,62.088552 98.630137,63.049748 C 99.351018,64.155361 100.26426,65.068601 101.36986,65.789473 C 104.49401,67.135411 106.56082,68.168815 107.5703,68.889691 C 108.62763,70.043362 108.98811,71.341126 108.65177,72.782986 C 107.93068,74.128915 107.16163,74.753764 106.34463,74.657535 C 103.84513,74.753764 102.45123,73.912621 102.16294,72.134103 L 102.30714,70.259554 L 97.692862,70.259554 L 97.548666,71.268926 z M 87.887527,87.130498 L 94.592646,113.44629 L 99.351118,113.44629 L 103.677,96.142755 L 108.07498,113.30209 L 108.07498,113.44629 L 112.97765,113.30209 L 119.17808,88.860852 L 119.68277,87.346792 L 119.68277,87.130498 L 114.708,87.130498 L 110.23792,104.50613 L 105.91204,87.130498 L 101.51406,87.130498 L 97.04398,104.21774 L 93.006489,87.346792 C 92.910265,87.106552 92.621873,87.034454 92.141312,87.130498 L 87.887527,87.130498 z M 126.0274,57.642394 L 129.27181,68.312905 L 129.27181,68.745494 L 123.07138,68.745494 L 126.0274,57.642394 z M 115.50108,78.478732 L 115.50108,78.622928 L 120.40375,78.622928 L 121.98991,72.638789 L 130.49748,72.638789 C 131.41059,76.243789 131.98737,78.2385 132.22783,78.622928 L 137.49099,78.622928 L 129.99279,52.307138 L 123.07138,52.379236 L 115.78947,78.046143 L 115.50108,78.478732 z M 122.71089,87.130498 L 122.71089,113.44629 L 127.68565,113.44629 L 127.82985,95.493873 L 136.55371,113.1579 C 136.64971,113.39828 136.9381,113.49441 137.41889,113.44629 L 141.60058,113.44629 L 141.60058,87.130498 L 136.55371,87.130498 L 136.40952,104.00144 L 128.33454,87.346792 C 128.23828,87.106552 127.92585,87.034454 127.39726,87.130498 L 122.71089,87.130498 z M 140.37491,52.307138 L 140.37491,78.622928 L 156.66907,78.622928 L 156.66907,74.008652 L 145.78226,74.008652 L 145.78226,52.307138 L 140.37491,52.307138 z M 147.22423,87.130498 L 147.22423,113.44629 L 164.23937,113.44629 L 164.23937,108.83201 L 152.63158,108.83201 L 152.63158,102.19899 L 161.42754,102.19899 L 161.42754,97.656814 L 152.63158,97.656814 L 152.63158,91.672676 L 163.95097,91.672676 L 163.95097,87.130498 L 147.22423,87.130498 z M 27.253064,131.11031 L 27.253064,154.32589 L 172.74694,154.32589 L 172.74694,131.11031 L 27.253064,131.11031 z M 160.20188,52.307138 L 160.20188,78.622928 L 177.21702,78.622928 L 177.21702,74.008652 L 165.60923,74.008652 L 165.60923,67.37563 L 174.40519,67.37563 L 174.40519,62.833454 L 165.60923,62.833454 L 165.60923,56.849316 L 176.92862,56.849316 L 176.92862,52.307138 L 160.20188,52.307138 z M 173.9726,91.023793 C 175.75085,90.831614 177.36103,91.047908 178.80317,91.672676 C 179.52397,92.201476 179.93253,92.922455 180.02884,93.835617 C 180.31705,96.911877 178.97122,98.546098 175.99135,98.738285 L 173.9726,98.738285 L 173.9726,91.023793 z M 168.56525,87.130498 L 168.56525,113.44629 L 173.9726,113.44629 L 173.9726,102.77578 L 176.27974,102.91997 L 180.74982,113.1579 C 180.7977,113.39828 181.11013,113.49441 181.6871,113.44629 L 186.66186,113.44629 L 181.25451,101.9106 C 183.75372,100.13226 185.19568,98.522065 185.58039,97.08003 C 186.20505,94.388448 185.89263,92.009214 184.64312,89.942322 C 183.53743,88.500446 181.51868,87.563172 178.58688,87.130498 L 168.56525,87.130498 z M 16.726748,38.248018 L 183.27325,38.248018 C 185.96473,38.68074 187.76718,40.194798 188.68061,42.790195 L 188.68061,157.13771 C 187.62298,159.92552 185.82053,161.46361 183.27325,161.75199 L 16.726748,161.75199 L 14.563806,161.1752 L 12.833453,159.87744 C 11.727937,158.33936 11.175186,157.16176 11.175197,156.34463 L 11.175197,43.655372 C 11.896166,40.387059 13.746681,38.58461 16.726748,38.248018 L 16.726748,38.248018 z M 4.614275,31.470801 L 4.614275,168.45711 L 195.31363,168.45711 L 195.31363,31.470801 L 4.614275,31.470801 z M -4.3958425e-07,26.928623 L 200,26.928623 L 200,173.07138 L -4.3958425e-07,173.07138 L -4.3958425e-07,26.928623 z"
         id="text2391"
         style="font-size:147.65681458px;font-style:normal;font-variant:normal;font-weight:normal;font-stretch:normal;text-align:start;line-height:125%;letter-spacing:0px;word-spacing:0px;writing-mode:lr-tb;text-anchor:start;fill:#ff0000;fill-opacity:1;stroke:none;stroke-width:1px;stroke-linecap:butt;stroke-linejoin:miter;stroke-opacity:1;font-family:All-Purpose Signs JL;-inkscape-font-specification:All-Purpose Signs JL" />
    </g>
  </g>
</svg>
