<?xml version="1.0" encoding="iso-8859-1"?>
<!-- Generator: Adobe Illustrator 19.0.0, SVG Export Plug-In . SVG Version: 6.00 Build 0)  -->
<svg version="1.1" id="Layer_1" xmlns="http://www.w3.org/2000/svg" xmlns:xlink="http://www.w3.org/1999/xlink" x="0px" y="0px"
	 viewBox="0 0 512 512" style="enable-background:new 0 0 512 512;" xml:space="preserve">
<g>
	<g>
		<path d="M451.794,111.802c8.083-16.821,12.167-30.196,12.167-39.953C463.961,32.231,431.729,0,392.111,0
			c-23.464,0-44.334,11.308-57.455,28.758C309.369,20.304,282.932,16.012,256,16.012c-66.242,0-128.518,25.796-175.358,72.635
			C33.803,135.488,8.006,197.764,8.006,264.005s25.796,128.519,72.635,175.359C127.482,486.204,189.758,512,256,512
			s128.519-25.796,175.359-72.635c46.84-46.841,72.635-109.117,72.635-175.359C503.994,208.929,485.495,155.131,451.794,111.802z
			 M230.648,32.981c-25.263,20.516-46.571,44.51-63.671,71.701c-18.744-6.163-36.804-14.249-53.736-24.103
			C147.256,53.994,187.658,37.616,230.648,32.981z M174.103,123.167c13.892,3.935,28.076,6.893,42.403,8.778
			c10.346,1.362,20.776,2.169,31.227,2.445v122.909H136.939c1.007-42.643,11.598-84.831,30.796-122.424
			C169.764,130.903,171.906,127.014,174.103,123.167z M91.669,99.675c2.912-2.912,5.89-5.729,8.926-8.467
			c18.272,11.11,37.866,20.242,58.256,27.204c-1.716,3.088-3.389,6.208-5.004,9.37c-20.313,39.778-31.494,84.418-32.505,129.517
			H23.704C25.381,197.737,49.359,141.985,91.669,99.675z M23.783,272.893h97.607c1.259,42.394,11.51,84.318,29.863,122.113
			c-21.522,8.011-42.101,18.54-61.392,31.48C49.196,384.929,25.947,330.776,23.783,272.893z M101.411,437.527
			c17.977-11.741,37.107-21.291,57.079-28.569c18.341,33.175,42.53,62.016,72.159,86.074
			C182.555,489.847,137.71,469.948,101.411,437.527z M247.734,488.607c-30.604-23.297-55.466-51.689-74.147-84.666
			c23.827-7.173,48.705-11.192,74.147-11.91V488.607z M247.734,376.432c-28.04,0.748-55.44,5.302-81.613,13.483
			c-17.855-36.128-27.851-76.335-29.126-117.021h110.739V376.432z M247.734,118.781c-9.769-0.272-19.521-1.023-29.192-2.295
			c-12.138-1.598-24.165-4.017-35.985-7.17c17.424-26.756,39.238-50.164,65.177-69.91V118.781z M488.291,257.299h-97.632
			c-0.501-22.366-3.506-44.618-8.886-66.221c2.421,3.32,3.925,5.314,4.119,5.571l6.219,8.226l6.219-8.226
			c0.663-0.876,16.405-21.751,32.418-47.351c4.902-7.838,9.262-15.218,13.086-22.138
			C471.339,164.916,486.928,210.455,488.291,257.299z M392.111,15.594c31.02,0,56.255,25.235,56.255,56.254
			c0,24.071-36.23,79.227-56.256,106.961c-20.026-27.728-56.253-82.873-56.253-106.961C335.857,40.83,361.092,15.594,392.111,15.594
			z M326.546,42.52c-3.911,8.709-6.139,18.326-6.262,28.448c-11.689-13.738-24.685-26.417-38.94-37.991
			C296.721,34.642,311.835,37.837,326.546,42.52z M263.328,38.701c26.357,19.899,48.496,43.549,66.131,70.635
			c-21.504,5.698-43.781,8.873-66.131,9.457V38.701z M263.328,134.4c25.244-0.627,50.415-4.388,74.589-11.199
			c2.191,3.836,4.326,7.714,6.349,11.674c19.198,37.592,29.789,79.782,30.796,122.424H263.328V134.4z M263.328,272.893h111.678
			c-1.273,40.686-11.269,80.892-29.125,117.02c-26.464-8.272-54.184-12.838-82.553-13.509V272.893z M263.328,392.004
			c25.769,0.643,50.966,4.674,75.086,11.936c-18.871,33.312-44.053,61.942-75.086,85.371V392.004z M281.351,495.031
			c29.628-24.059,53.818-52.899,72.158-86.074c19.973,7.278,39.103,16.828,57.079,28.57
			C374.289,469.949,329.445,489.847,281.351,495.031z M422.138,426.487c-19.292-12.941-39.87-23.47-61.392-31.481
			c18.353-37.796,28.604-79.718,29.864-122.112h97.607C486.055,330.776,462.805,384.929,422.138,426.487z"/>
	</g>
</g>
<g>
	<g>
		<path d="M392.111,24.019c-26.373,0-47.829,21.456-47.829,47.829c0,26.374,21.456,47.83,47.829,47.83
			c26.374,0,47.83-21.456,47.83-47.83C439.942,45.476,418.485,24.019,392.111,24.019z M392.111,104.085
			c-17.775,0-32.235-14.461-32.235-32.236c0-17.775,14.46-32.235,32.235-32.235c17.775,0,32.236,14.46,32.236,32.235
			C424.348,89.624,409.887,104.085,392.111,104.085z"/>
	</g>
</g>
<g>
	<g>
		<polygon points="400.556,63.932 400.556,48.338 384.962,48.338 384.962,63.932 368.328,63.932 368.328,79.526 384.962,79.526 
			384.962,96.16 400.556,96.16 400.556,79.526 416.15,79.526 416.15,63.932 		"/>
	</g>
</g>
<g>
	<g>
		<rect x="383.928" y="127.352" width="15.594" height="15.594"/>
	</g>
</g>
<g>
</g>
<g>
</g>
<g>
</g>
<g>
</g>
<g>
</g>
<g>
</g>
<g>
</g>
<g>
</g>
<g>
</g>
<g>
</g>
<g>
</g>
<g>
</g>
<g>
</g>
<g>
</g>
<g>
</g>
</svg>
