<?xml version="1.0" encoding="iso-8859-1"?>
<!-- Generator: Adobe Illustrator 19.0.0, SVG Export Plug-In . SVG Version: 6.00 Build 0)  -->
<svg version="1.1" id="Layer_1" xmlns="http://www.w3.org/2000/svg" xmlns:xlink="http://www.w3.org/1999/xlink" x="0px" y="0px"
	 viewBox="0 0 489.902 489.902" style="enable-background:new 0 0 489.902 489.902;" xml:space="preserve">
<g>
	<g>
		<g>
			<path d="M482.531,17.714H7.371C3.3,17.714,0,21.014,0,25.084v99.478c0,4.071,3.3,7.371,7.371,7.371h99.63
				c0.099,0,0.195-0.011,0.293-0.015v332.899c0,0.066,0.008,0.13,0.01,0.196c0.004,0.132,0.009,0.264,0.02,0.396
				c0.009,0.116,0.022,0.23,0.036,0.345c0.016,0.122,0.034,0.244,0.056,0.366c0.021,0.12,0.045,0.238,0.072,0.355
				c0.026,0.115,0.056,0.229,0.088,0.342c0.034,0.119,0.069,0.236,0.108,0.352c0.037,0.111,0.078,0.22,0.121,0.33
				c0.045,0.114,0.091,0.227,0.141,0.339c0.048,0.107,0.099,0.212,0.153,0.317c0.056,0.11,0.114,0.219,0.176,0.326
				c0.057,0.1,0.117,0.198,0.179,0.295c0.07,0.109,0.142,0.216,0.217,0.322c0.064,0.089,0.129,0.177,0.197,0.264
				c0.085,0.109,0.174,0.214,0.265,0.317c0.041,0.047,0.077,0.098,0.12,0.144c0.029,0.032,0.062,0.058,0.091,0.089
				c0.104,0.109,0.213,0.213,0.324,0.315c0.077,0.071,0.153,0.143,0.232,0.211c0.107,0.091,0.218,0.174,0.33,0.259
				c0.088,0.067,0.175,0.136,0.265,0.198c0.111,0.076,0.227,0.145,0.342,0.215c0.095,0.058,0.188,0.12,0.285,0.173
				c0.135,0.074,0.276,0.138,0.416,0.204c0.08,0.038,0.158,0.081,0.24,0.115c0.67,0.285,1.39,0.475,2.145,0.55
				c0.14,0.014,0.281,0.015,0.421,0.021c0.107,0.004,0.213,0.016,0.321,0.016h260.572c0.001,0,0.002,0,0.003,0h0.002
				c0.003,0,0.005,0,0.008,0c0.368-0.001,0.727-0.037,1.081-0.089c0.069-0.01,0.138-0.019,0.207-0.032
				c0.355-0.063,0.7-0.151,1.036-0.263c0.056-0.019,0.111-0.041,0.167-0.061c0.357-0.129,0.705-0.278,1.034-0.458
				c0.01-0.006,0.02-0.013,0.03-0.018c0.349-0.193,0.678-0.417,0.989-0.662c0.018-0.014,0.038-0.023,0.056-0.037
				c0.011-0.009,0.02-0.019,0.031-0.028c0.125-0.101,0.242-0.211,0.36-0.32c0.064-0.059,0.131-0.115,0.193-0.175
				c0.088-0.087,0.168-0.182,0.252-0.274c0.384-0.422,0.716-0.876,0.986-1.361c0.015-0.027,0.034-0.053,0.049-0.081
				c0.051-0.095,0.093-0.194,0.14-0.291c0.323-0.661,0.547-1.377,0.659-2.131c0.015-0.101,0.035-0.202,0.046-0.303
				c0.01-0.099,0.012-0.2,0.018-0.3c0.01-0.147,0.021-0.293,0.022-0.44c0-0.016,0.002-0.031,0.002-0.047V131.933h99.923
				c4.071,0,7.371-3.3,7.371-7.371V25.084C489.902,21.014,486.602,17.714,482.531,17.714z M133.49,457.447l116.466-107.724
				c2.989-2.764,3.17-7.427,0.406-10.416c-2.763-2.988-7.427-3.17-10.416-0.406l-117.91,109.06V82.313h44.777l73.083,68.878
				c1.424,1.342,3.241,2.007,5.054,2.007c1.96,0,3.915-0.777,5.365-2.315c2.792-2.963,2.654-7.627-0.308-10.419l-61.701-58.151
				h127.346L193.139,240.558c-2.086,2.694-2.053,6.467,0.079,9.124l166.657,207.765H133.49z M367.866,443.849l-159.515-198.86
				L334.295,82.313h33.571V443.849z M382.608,117.191V82.313h53.94c4.071,0,7.371-3.3,7.371-7.371c0-4.071-3.3-7.371-7.371-7.371
				h-61.311H114.665H53.354c-4.071,0-7.371,3.3-7.371,7.371c0,4.071,3.3,7.371,7.371,7.371h53.94v34.893
				c-0.098-0.004-0.194-0.015-0.293-0.015h-92.26V32.455H475.16v84.736H382.608z"/>
			<path d="M330.973,184.816v120.507c0,4.071,3.3,7.371,7.371,7.371c4.071,0,7.371-3.3,7.371-7.371V184.816
				c0-4.071-3.3-7.371-7.371-7.371C334.273,177.445,330.973,180.745,330.973,184.816z"/>
		</g>
	</g>
</g>
<g>
</g>
<g>
</g>
<g>
</g>
<g>
</g>
<g>
</g>
<g>
</g>
<g>
</g>
<g>
</g>
<g>
</g>
<g>
</g>
<g>
</g>
<g>
</g>
<g>
</g>
<g>
</g>
<g>
</g>
</svg>
